<svg xmlns="http://www.w3.org/2000/svg" viewBox="0 0 199.25 41.32">
    <style>
        @keyframes clip-l2r {
            from {
                clip-path: inset(0% 100% 0% 0%);
            }
            to {
                clip-path: inset(0% 0% 0% 0%);
            }
        }
        #logo {
            animation-name: clip-l2r;
            animation-duration: 2s;
        }
        #subtitle {
            animation-name: clip-l2r;
            animation-duration: 2s;
        }
    </style>
    <g id="logo">
        <path d="M11.09,24.59a9.67,9.67,0,0,1-7.57-3.15A11.87,11.87,0,0,1,.7,13.23,12.36,12.36,0,0,1,3.6,4.65a10.11,10.11,0,0,1,7.92-3.23,9.44,9.44,0,0,1,7.33,3.1,11.68,11.68,0,0,1,2.81,8.14q0,5.55-2.88,8.75a9,9,0,0,1-2,1.67l5.43,4.14H19.62l-4.23-3.41A11.25,11.25,0,0,1,11.09,24.59Zm.16-21.76A8.23,8.23,0,0,0,4.82,5.66a10.69,10.69,0,0,0-2.52,7.4,10.79,10.79,0,0,0,2.39,7.37,8,8,0,0,0,6.37,2.74,8.36,8.36,0,0,0,6.58-2.71c1.61-1.81,2.42-4.32,2.42-7.55s-.79-5.64-2.36-7.42A8.21,8.21,0,0,0,11.25,2.83Z" transform="translate(-0.7 -0.88)"/>
        <path d="M30.64,3.22v21H29.11v-21H22.64V1.8H37.11V3.22Z" transform="translate(-0.7 -0.88)"/>
        <path d="M40.83,21.91l-2.66,3.15-1-.79L40,20.94a12.28,12.28,0,0,1-2.39-7.71,12.32,12.32,0,0,1,2.9-8.58,10.1,10.1,0,0,1,7.91-3.23,9.61,9.61,0,0,1,6.23,2.05L56.8.88l1,.82L55.59,4.33a11.69,11.69,0,0,1,2.94,8.33q0,5.55-2.87,8.75A9.86,9.86,0,0,1,48,24.59,10,10,0,0,1,40.83,21.91ZM53.67,4.62a8.65,8.65,0,0,0-5.55-1.79A8.2,8.2,0,0,0,41.7,5.66a10.65,10.65,0,0,0-2.53,7.4A11.38,11.38,0,0,0,41,19.72Zm.92.9L41.83,20.72a8.17,8.17,0,0,0,6.11,2.45,8.38,8.38,0,0,0,6.58-2.71c1.61-1.81,2.42-4.32,2.42-7.55A10.92,10.92,0,0,0,54.59,5.52Z" transform="translate(-0.7 -0.88)"/>
    </g>
    <g id="subtitle">
        <path d="M2.78,42H1.47V30.8H2.78Z" transform="translate(-0.7 -0.88)"/>
        <path d="M12.2,42H10.91V37.44c0-1.69-.62-2.54-1.86-2.54a2,2,0,0,0-1.59.72,2.71,2.71,0,0,0-.62,1.82V42H5.55V34H6.84v1.32h0a2.88,2.88,0,0,1,2.62-1.51,2.43,2.43,0,0,1,2,.85,3.78,3.78,0,0,1,.7,2.45Z" transform="translate(-0.7 -0.88)"/>
        <path d="M18.32,41.93a2.55,2.55,0,0,1-1.2.25c-1.4,0-2.1-.78-2.1-2.35V35.1H13.65V34H15v-2l1.28-.41V34h2V35.1h-2v4.51a1.9,1.9,0,0,0,.28,1.15,1.07,1.07,0,0,0,.9.34,1.32,1.32,0,0,0,.84-.27Z" transform="translate(-0.7 -0.88)"/>
        <path d="M26.46,38.33H20.81a3,3,0,0,0,.72,2.06,2.5,2.5,0,0,0,1.89.73,3.93,3.93,0,0,0,2.49-.9v1.21a4.68,4.68,0,0,1-2.79.76,3.39,3.39,0,0,1-2.67-1.09,4.47,4.47,0,0,1-1-3.06,4.42,4.42,0,0,1,1.06-3,3.41,3.41,0,0,1,2.63-1.17,3,3,0,0,1,2.43,1,4.26,4.26,0,0,1,.86,2.82Zm-1.31-1.09a2.67,2.67,0,0,0-.54-1.73,1.82,1.82,0,0,0-1.46-.61,2.06,2.06,0,0,0-1.54.64,3,3,0,0,0-.78,1.7Z" transform="translate(-0.7 -0.88)"/>
        <path d="M32.57,35.3a1.58,1.58,0,0,0-1-.26,1.63,1.63,0,0,0-1.37.78,3.55,3.55,0,0,0-.55,2.11V42H28.4V34h1.28v1.64h0a2.71,2.71,0,0,1,.84-1.31,1.86,1.86,0,0,1,1.25-.47,2.2,2.2,0,0,1,.77.1Z" transform="translate(-0.7 -0.88)"/>
        <path d="M39.69,42H38.41V40.76h0a2.67,2.67,0,0,1-2.46,1.43A2.65,2.65,0,0,1,34,41.56a2.19,2.19,0,0,1-.67-1.68q0-2.24,2.64-2.61l2.4-.33q0-2-1.65-2a3.89,3.89,0,0,0-2.61,1V34.57a4.94,4.94,0,0,1,2.72-.75c1.88,0,2.82,1,2.82,3Zm-1.28-4-1.93.26a3.22,3.22,0,0,0-1.35.45,1.27,1.27,0,0,0-.45,1.12,1.19,1.19,0,0,0,.42,1,1.61,1.61,0,0,0,1.11.38,2.09,2.09,0,0,0,1.58-.67,2.41,2.41,0,0,0,.62-1.69Z" transform="translate(-0.7 -0.88)"/>
        <path d="M47.55,41.64a4.13,4.13,0,0,1-2.18.55,3.62,3.62,0,0,1-2.76-1.11,4,4,0,0,1-1.06-2.89A4.42,4.42,0,0,1,42.69,35a4,4,0,0,1,3-1.2,4.24,4.24,0,0,1,1.86.39v1.31a3.23,3.23,0,0,0-1.91-.62,2.58,2.58,0,0,0-2,.88,3.32,3.32,0,0,0-.78,2.3,3.14,3.14,0,0,0,.74,2.22,2.55,2.55,0,0,0,2,.82,3.22,3.22,0,0,0,2-.7Z" transform="translate(-0.7 -0.88)"/>
        <path d="M53.2,41.93a2.53,2.53,0,0,1-1.19.25c-1.4,0-2.1-.78-2.1-2.35V35.1H48.53V34h1.38v-2l1.28-.41V34h2V35.1h-2v4.51a1.91,1.91,0,0,0,.27,1.15,1.09,1.09,0,0,0,.91.34,1.31,1.31,0,0,0,.83-.27Z" transform="translate(-0.7 -0.88)"/>
        <path d="M55.57,32a.81.81,0,0,1-.59-.23.79.79,0,0,1-.24-.59.81.81,0,0,1,.24-.6.82.82,0,0,1,.59-.24.85.85,0,0,1,.6.24.81.81,0,0,1,.24.6.78.78,0,0,1-.24.58A.85.85,0,0,1,55.57,32Zm.63,10H54.91V34H56.2Z" transform="translate(-0.7 -0.88)"/>
        <path d="M65.08,34l-3.19,8H60.63l-3-8H59l2,5.81a5.52,5.52,0,0,1,.28,1.12h0a5.31,5.31,0,0,1,.25-1.09L63.73,34Z" transform="translate(-0.7 -0.88)"/>
        <path d="M72.88,38.33H67.23A3,3,0,0,0,68,40.39a2.5,2.5,0,0,0,1.89.73,3.93,3.93,0,0,0,2.49-.9v1.21a4.65,4.65,0,0,1-2.79.76,3.39,3.39,0,0,1-2.67-1.09,4.47,4.47,0,0,1-1-3.06,4.42,4.42,0,0,1,1-3,3.42,3.42,0,0,1,2.63-1.17,3,3,0,0,1,2.43,1,4.21,4.21,0,0,1,.86,2.82Zm-1.31-1.09A2.67,2.67,0,0,0,71,35.51a1.84,1.84,0,0,0-1.47-.61,2.08,2.08,0,0,0-1.54.64,3,3,0,0,0-.78,1.7Z" transform="translate(-0.7 -0.88)"/>
        <path d="M85.31,42H79.37V30.8h5.69V32H80.69v3.73h4V36.9h-4v3.92h4.62Z" transform="translate(-0.7 -0.88)"/>
        <path d="M93.94,42H92.66V37.44c0-1.69-.62-2.54-1.86-2.54a2,2,0,0,0-1.59.72,2.67,2.67,0,0,0-.63,1.82V42H87.3V34h1.28v1.32h0a2.88,2.88,0,0,1,2.62-1.51,2.43,2.43,0,0,1,2,.85,3.73,3.73,0,0,1,.7,2.45Z" transform="translate(-0.7 -0.88)"/>
        <path d="M100.06,41.93a2.53,2.53,0,0,1-1.19.25c-1.4,0-2.1-.78-2.1-2.35V35.1H95.39V34h1.38v-2l1.28-.41V34h2V35.1h-2v4.51a1.91,1.91,0,0,0,.27,1.15,1.08,1.08,0,0,0,.91.34,1.31,1.31,0,0,0,.83-.27Z" transform="translate(-0.7 -0.88)"/>
        <path d="M108.2,38.33h-5.65a3.08,3.08,0,0,0,.72,2.06,2.5,2.5,0,0,0,1.89.73,3.91,3.91,0,0,0,2.49-.9v1.21a4.63,4.63,0,0,1-2.79.76,3.35,3.35,0,0,1-2.66-1.09,4.43,4.43,0,0,1-1-3.06,4.38,4.38,0,0,1,1.06-3,3.39,3.39,0,0,1,2.62-1.17,3,3,0,0,1,2.43,1,4.21,4.21,0,0,1,.86,2.82Zm-1.31-1.09a2.61,2.61,0,0,0-.53-1.73,1.84,1.84,0,0,0-1.47-.61,2.08,2.08,0,0,0-1.54.64,3,3,0,0,0-.78,1.7Z" transform="translate(-0.7 -0.88)"/>
        <path d="M114.31,35.3a1.56,1.56,0,0,0-1-.26,1.64,1.64,0,0,0-1.37.78,3.62,3.62,0,0,0-.55,2.11V42h-1.28V34h1.28v1.64h0a2.79,2.79,0,0,1,.84-1.31,1.86,1.86,0,0,1,1.26-.47,2.14,2.14,0,0,1,.76.1Z" transform="translate(-0.7 -0.88)"/>
        <path d="M119.41,41.93a2.53,2.53,0,0,1-1.19.25c-1.4,0-2.1-.78-2.1-2.35V35.1h-1.38V34h1.38v-2l1.28-.41V34h2V35.1h-2v4.51a1.91,1.91,0,0,0,.27,1.15,1.09,1.09,0,0,0,.91.34,1.31,1.31,0,0,0,.83-.27Z" transform="translate(-0.7 -0.88)"/>
        <path d="M126.85,42h-1.28V40.76h0a2.7,2.7,0,0,1-2.46,1.43,2.63,2.63,0,0,1-1.87-.63,2.19,2.19,0,0,1-.68-1.68q0-2.24,2.64-2.61l2.4-.33q0-2-1.65-2a3.93,3.93,0,0,0-2.61,1V34.57a5,5,0,0,1,2.72-.75c1.88,0,2.82,1,2.82,3Zm-1.28-4-1.93.26a3.22,3.22,0,0,0-1.34.45,1.27,1.27,0,0,0-.46,1.12,1.19,1.19,0,0,0,.42,1,1.61,1.61,0,0,0,1.11.38,2.08,2.08,0,0,0,1.58-.67,2.41,2.41,0,0,0,.62-1.69Z" transform="translate(-0.7 -0.88)"/>
        <path d="M129.92,32a.78.78,0,0,1-.58-.23.76.76,0,0,1-.25-.59.84.84,0,0,1,.83-.84.81.81,0,0,1,.6.24.82.82,0,0,1,.25.6.79.79,0,0,1-.25.58A.81.81,0,0,1,129.92,32Zm.63,10h-1.28V34h1.28Z" transform="translate(-0.7 -0.88)"/>
        <path d="M139.78,42H138.5V37.44c0-1.69-.62-2.54-1.86-2.54a2,2,0,0,0-1.59.72,2.67,2.67,0,0,0-.63,1.82V42h-1.28V34h1.28v1.32h0a2.89,2.89,0,0,1,2.63-1.51,2.45,2.45,0,0,1,2,.85,3.78,3.78,0,0,1,.69,2.45Z" transform="translate(-0.7 -0.88)"/>
        <path d="M153.55,42h-1.28v-4.6a3.42,3.42,0,0,0-.41-1.92,1.54,1.54,0,0,0-1.38-.59,1.71,1.71,0,0,0-1.39.75,2.88,2.88,0,0,0-.57,1.79V42h-1.29V37.26c0-1.58-.6-2.36-1.82-2.36a1.69,1.69,0,0,0-1.39.7,3,3,0,0,0-.54,1.84V42H142.2V34h1.28v1.26h0A2.71,2.71,0,0,1,146,33.82a2.33,2.33,0,0,1,2.27,1.65,2.85,2.85,0,0,1,2.65-1.65c1.76,0,2.64,1.08,2.64,3.26Z" transform="translate(-0.7 -0.88)"/>
        <path d="M162.41,38.33h-5.65a3,3,0,0,0,.72,2.06,2.48,2.48,0,0,0,1.89.73,3.89,3.89,0,0,0,2.48-.9v1.21a4.63,4.63,0,0,1-2.79.76,3.35,3.35,0,0,1-2.66-1.09,4.43,4.43,0,0,1-1-3.06,4.38,4.38,0,0,1,1.06-3,3.39,3.39,0,0,1,2.63-1.17,3,3,0,0,1,2.43,1,4.26,4.26,0,0,1,.86,2.82Zm-1.32-1.09a2.61,2.61,0,0,0-.53-1.73,1.82,1.82,0,0,0-1.47-.61,2.09,2.09,0,0,0-1.54.64,3,3,0,0,0-.78,1.7Z" transform="translate(-0.7 -0.88)"/>
        <path d="M171,42H169.7V37.44c0-1.69-.62-2.54-1.86-2.54a2,2,0,0,0-1.59.72,2.67,2.67,0,0,0-.63,1.82V42h-1.28V34h1.28v1.32h0a2.88,2.88,0,0,1,2.62-1.51,2.43,2.43,0,0,1,2,.85,3.78,3.78,0,0,1,.69,2.45Z" transform="translate(-0.7 -0.88)"/>
        <path d="M177.11,41.93a2.55,2.55,0,0,1-1.2.25c-1.4,0-2.1-.78-2.1-2.35V35.1h-1.37V34h1.37v-2l1.28-.41V34h2V35.1h-2v4.51a1.83,1.83,0,0,0,.28,1.15,1.07,1.07,0,0,0,.9.34,1.34,1.34,0,0,0,.84-.27Z" transform="translate(-0.7 -0.88)"/>
        <path d="M185.25,38.33H179.6a3,3,0,0,0,.72,2.06,2.5,2.5,0,0,0,1.89.73,3.93,3.93,0,0,0,2.49-.9v1.21a4.68,4.68,0,0,1-2.79.76,3.39,3.39,0,0,1-2.67-1.09,4.47,4.47,0,0,1-1-3.06,4.42,4.42,0,0,1,1.06-3A3.41,3.41,0,0,1,182,33.82a3,3,0,0,1,2.43,1,4.26,4.26,0,0,1,.86,2.82Zm-1.31-1.09a2.67,2.67,0,0,0-.54-1.73,1.82,1.82,0,0,0-1.46-.61,2.06,2.06,0,0,0-1.54.64,3,3,0,0,0-.78,1.7Z" transform="translate(-0.7 -0.88)"/>
        <path d="M193.83,42h-1.28V37.44c0-1.69-.62-2.54-1.86-2.54a2,2,0,0,0-1.59.72,2.67,2.67,0,0,0-.63,1.82V42h-1.28V34h1.28v1.32h0a2.88,2.88,0,0,1,2.62-1.51,2.43,2.43,0,0,1,2,.85,3.73,3.73,0,0,1,.7,2.45Z" transform="translate(-0.7 -0.88)"/>
        <path d="M200,41.93a2.53,2.53,0,0,1-1.19.25c-1.4,0-2.1-.78-2.1-2.35V35.1h-1.38V34h1.38v-2l1.28-.41V34h2V35.1h-2v4.51a1.91,1.91,0,0,0,.27,1.15,1.09,1.09,0,0,0,.91.34,1.31,1.31,0,0,0,.83-.27Z" transform="translate(-0.7 -0.88)"/>
    </g>
</svg>
